<svg id="Laag_1" data-name="Laag 1" xmlns="http://www.w3.org/2000/svg" viewBox="0 0 5000 2427.31"><defs><style>.cls-1{fill:#fff;}.cls-2{fill:#f6f6f6;}</style></defs><title>logo</title><g id="Laag_8" data-name="Laag 8"><g id="g51"><path id="path53" class="cls-1" d="M2281.59,588.46s0,27.57-.46,36-5.14,15.42-22.89,6.08c-13.09,15.42-43,51.87-62.61,48.59s-28-24.3-28-24.3c-11.68,7.47-17.76,9.35-25.7,22.43,6.55,2.34,24.76,16.35,30.83,22s13.09,10.74,29.91,1.4,31.31-14,46.26-18.69,33.18-10.29,45.8-18.7,43.45-25.7,48.59-29.43,19.16-8.42,22.42-22.9,5.6-22,5.6-26.63,7.48-10.28,10.75-11.68,12.15-7.94,22-16.82c8.42-7.48,13.09-3.27,13.09-3.27s18.22,3.27,25.7,3.27,14.94,7.47.94,12.15c7,5.61,13.09,9.81,13.09,11.21s-3.74,10.29-14,5.15a58.58,58.58,0,0,1-8.88-5.61s-.94,13.09-24.77,24.77c-4.2,17.29-7.47,33.17-22.89,43s-57.94,44.86-86.45,71-72,46.26-82.71,50.46-24.77,5.14-33.64,3.27-29-.47-50.94-1.41c-4.67,15-13.08,52.81-29.91,65.42-6.55,5.6-27.1,33.64-37.85,50.46S2012,966,1998.89,980s-39.25,42.06-38.79,51.4,45.79,43,136,120.56c72,61.22,66.83,64.49,72,71.5s17.29,10.75,22.42,15.43,20.56,24.29,25.24,56.06,3.73,39.26,12.62,59.35c14.95,36.93,23.67,69.32,32.39,111.06s20.56,92.84,20.56,92.84c8.72-.63,16.2-6.85,24.92,12.45s10,30.54,8.1,32.41c4.37,5.61,21.18,33,22.42,41.73,6.86,1.23,21.18,5,24.31,10.59,5.6,0,24.29-1.89,22.42,6.24,20.55,2.49,39.25,6.22,39.25,8.7,21.82-.6,41.12-4.34,51.1-1.23s23.05,14.94,25.55,28c4.37,1.24,10,10.59,10,19.93-6.85,6.87-26.18,22.44-26.18,22.44l-11.83-1.88-1.24,7.47-13.71,7.48-6.23-4.36-3.11,1.24-2.48,6.85-16.2,6.86-3.74-5.6-6.23,3.74-1.87,6.21-16.82,5-3.12-6.23-4.35,1.24-1.87,7.46-15,3.14-3.73-7.47-52.33,13.09,1.86,8.72-8.1.61.62,6.22-18.69,5-5-4.37-8.09,10.59h-11.84l-29.27,8.73s-19.32-26.81-15.58-44.26c-6.23-21.79-8.1-64.16-3.73-114-6.23-9.33-7.47-12.46-6.85-18.68-5-9.35-11.22-28-6.24-33-186.28-248.58-286-329.58-480.35-426.76,72.28,17.45,211.83,58.55,376.31,210.58-17.44-31.15-27.42-47.34-27.42-47.34s-199.37-193.14-534.55-287.85c94.7,12.47,267.91,48.6,453.56,164.48-27.41-37.38-36.13-47.35-36.13-47.35S1663.24,978.16,1348,953.23c102.16-2.5,270.39,3.73,463.53,87.21-204.36-100.93-363.84-196.88-757.6-252.95,117.13,3.73,320.23,7.48,639.22,139.56-148.9-104-375.06-233-868.49-307.77,114,1.86,476.61,9.35,960.71,302.8,33.65-28,108.4-136.45,121.49-175.7s37.38-136.44,37.38-136.44c1.86-6.23,1.24-8.1-2.49-13.71s-40.49-54.82-44.86-60.43-16.82-28-24.3-38.63-31.15-52.35-42.37-68.53-34.26-41.75-50.47-69.15-85.34-143.93-88.46-184.43,5-134.56-1.24-154.5.63-23.67,18.07-1.24c4.36-6.85,7.47-11.21,16.82-2.48,8.1-2.5,26.17-12.46,36.13,20.55s19.94,80.38,10,101.55-23.66,41.74,3.75,84.74,70.4,95.31,91,117.11,33.65,41.75,40.49,61.06,35.52,35.51,48,47.35,25.54,23.06,31.77,38.64,28,27.41,46.73,40.49,55.44,44.23,57.31,60.44c6.85-6.23,10.6-6.85,14.34-24.93s8.09-70.39,31.77-91.58,59.19-43,97.82-21.18,77.25,59.19,65.42,102.79c-8.75,26.81-17.79,34.59-17.79,34.59Z" transform="translate(0 -4)"/><path id="path55" class="cls-1" d="M1349.93,929.69c-198.56,2.18-272.18,50.93-263.44,67.79s33.49,22.23,52.4,3.68,69.16-50.9,211-71.46Z" transform="translate(0 -4)"/><path id="path57" class="cls-1" d="M1681.4,1060.28c-196.15-75-287.52-55.73-285.47-35.76s24.3,34.89,50.12,24S1533.86,1025.34,1681.4,1060.28Z" transform="translate(0 -4)"/><path id="path59" class="cls-1" d="M1792.63,1175.21c-127-65.62-190.29-59.49-190.41-45.81s13.79,25.43,32.09,20S1695.46,1140.38,1792.63,1175.21Z" transform="translate(0 -4)"/><path id="path61" class="cls-1" d="M1453.65,987.42c-169.18-28.27-226.94,2.73-217.72,18.63s30.88,24.32,45.09,11.15S1334.74,983.66,1453.65,987.42Z" transform="translate(0 -4)"/><path id="path63" class="cls-1" d="M1284,856.52c-202.59-55.34-291.6-27.1-287.6-7.43S1024,881.4,1048.62,868,1133.72,836.31,1284,856.52Z" transform="translate(0 -4)"/><path id="path65" class="cls-1" d="M1594.84,951.67C1316,856.73,1160.41,868.33,1154.21,889s22.45,38,69,29.19,151.75-15.86,371.66,33.44Z" transform="translate(0 -4)"/><path id="path67" class="cls-1" d="M1431,806.83c-310.13-115.16-482.38-103.58-489-79.32s25.38,45,76.79,35.18S1186.73,746,1431,806.83Z" transform="translate(0 -4)"/><g id="g69"><path id="path71" class="cls-1" d="M2551.52,2233.14v-114H2366.08c11.38,35.31,23,73.64,34,114Z" transform="translate(0 -4)"/><path id="path73" class="cls-1" d="M2551.52,2431V2324H2422.94c8.07,35.09,15.37,71,21.47,107.06Z" transform="translate(0 -4)"/><path id="path75" class="cls-1" d="M2551.52,2021.35V1914.27H2291.27c5.87,14,21.64,52.42,41.42,107.08Z" transform="translate(0 -4)"/></g><path id="path77" class="cls-1" d="M3855.58,1949.32v479.5H3972v-107h174.57l72.17,107,117.91-.76-299.46-443.8c-27.94-41.9-60.54-74.46-109.42-74.46S3855.58,1942.35,3855.58,1949.32ZM3972,2063.4l95.43,137.32H3972Z" transform="translate(0 -4)"/><path id="path79" class="cls-1" d="M3063.43,2230.19c62.85,0,97.76-46.52,97.76-90.74V1988.14c0-32.6-41.9-74.49-111.73-74.49H2628.18v516.75h116.38V2232.52h186.18l104.74,195.55h130.35s-11.62-23.3-102.4-197.88Zm-53.56-111.71H2742.23v-97.77h265.33c27.92,0,44.21,13.95,44.21,44.22s-7,53.54-41.9,53.54Z" transform="translate(0 -4)"/><path id="path81" class="cls-1" d="M3675.59,2230.19c62.85,0,97.74-46.52,97.74-90.74V1988.14c0-32.6-41.9-74.49-111.74-74.49H3240.32v516.75H3356.7V2232.52h186.21l104.72,195.55H3778s-11.63-23.3-102.41-197.88Zm-53.53-111.71H3354.37v-97.77h265.36c27.9,0,44.23,13.95,44.23,44.22s-7,53.54-41.9,53.54Z" transform="translate(0 -4)"/><path id="path83" class="cls-1" d="M4326.54,2428.81h42.66c23.28,0,48.89-28.7,48.89-63.59V1911.34h-114v474.81Z" transform="translate(0 -4)"/><path id="path85" class="cls-1" d="M4499.58,2429.22h115.18V2064.94l245.58,363.11h83.79c29.1,0,55.87-29.1,55.87-57V1912.47H4886v374.73l-235.11-338.63c-16.29-21-33.74-37.25-79.13-37.25s-72.14,17.44-72.14,38.39v479.5Z" transform="translate(0 -4)"/></g></g><g id="Laag_10" data-name="Laag 10"><g id="g134"><path id="path136" class="cls-2" d="M2219.92,1659.15c-6.23-9.35-7.47-12.47-6.86-18.71-4-7.53-8.73-21-7.86-28.62-205.24-254.36-505.81-473.94-912.36-554.53C444.28,889.08,87.78,1338.08,87.78,1338.08c398.61-354.73,947.13-292,1193.82-225.06a2018,2018,0,0,1,218.31,75.62c-2.21,2.3-3.91,4.11-4.92,5.23-12.3,13.36-30.34,28.74-33.49,31.39-53.33-20.38-89.07-17.75-108.31-14.66-25,4-30.53,3.92-83.93,1.11-1.23-6.69-9.56-10.26-17.49-9-2.54-7.81-14.56-4.31-27.09,1.14-10.68-9-23.14-10.35-33-9.52-2.39-2.86-5.9-4-9.33-4.3-3.89-2.94-8.78-6.61-15.25-11.47-31.23-25.46-55.17-37.29-67.49-39.84-6.7-10.51-31.95-10-44.88-10.73-5,7.34-9.4,27.64-9.4,27.64l-6.85,9.2,4.87,13.58-7.42,1.19-6.88,19,5.52,3.11-3.71,6.15,8.59,3.7-18.79,51.67-8.6-1.32-6.25,13.52,6.73,5.61-3.09,4.26-6.77-.65-5,17.2,4.88,3.74-.66,8-7.36-.07-3.82,17.23,6.13,6.19-1.23,3.69-8.29,2-1.05,15.77,5.49,4.35a30.62,30.62,0,0,1-8.07,9.24c1.15,8.4,3.38,34.82,3.38,34.82s13.17,6.08,22.78,3.73c44.31,11.08,50.58-33.27,65.06-50,9.63-2.38,20.5-17.91,29-26.25,8.38,1.26,12-7.12,18.11-15.48,4.82-.94,12-4.22,17.82-9.87a77.69,77.69,0,0,1,2.09-7.65,296.39,296.39,0,0,0,35.56-.87c6.5,5.49,19.95,7.91,36.9,8.83s13.67-8.4,18.73-19.66c0,0,128.67,39.38,158.16,46.43,14.75,3.51,31.75,5.65,46.68,7.65-.1.39-.16.86-.24,1.23,16.15,5.78,29.7,4.44,38.16,2.08s12.76-10.82,29.65-15.54,86.11-39.11,133.85-65.77c3.78-2.1,7.35-4.63,11-6.95,350.45,183.51,516,421.06,573,519.39a23.49,23.49,0,0,1,.31-5.11c-6.23-21.82-8.1-64.2-3.73-114Z" transform="translate(0 -4)"/><g id="g138"><path id="path140" class="cls-2" d="M2036.49,2024v300.28c0,46.55,32.57,107.06,111.72,107.06h295.57c-6.09-36.08-13.4-72-21.47-107.06H2178.47c-16.29,0-30.27-27.93-30.27-46.52s14-44.29,30.27-44.29h221c-11-40.36-22.62-78.7-34-114h-187c-14,0-30.26-23.29-30.26-46.57s14-51.21,30.26-51.21h153.6c-19.78-54.65-35.55-93.08-41.41-107.08H2148.21c-62.85,0-111.72,51.25-111.72,109.41Z" transform="translate(0 -4)"/></g><path id="path142" class="cls-2" d="M407.34,1491.37c-48.89,0-81.48,32.6-109.41,74.49L0,2008.11H117.82l70.74-104.77H363.13v107.1H479.5V1530.92C479.49,1524,456.21,1491.37,407.34,1491.37ZM363.12,1782.3H267.68L363.12,1645Z" transform="translate(0 -4)"/><path id="path144" class="cls-2" d="M686.65,1493.71H572.59v409.64c0,41.88,41.91,107.1,114.05,107.1H893.81v-107.1H686.65Z" transform="translate(0 -4)"/><path id="path146" class="cls-2" d="M1026.49,1493.71h-114v409.64c0,41.88,41.89,107.1,114,107.1h207.16v-107.1H1026.49Z" transform="translate(0 -4)"/><polygon id="polygon148" class="cls-2" points="1517.86 1910.27 1517.86 2017.35 1708.74 2017.35 1708.74 2424.7 1822.78 2424.7 1822.78 2017.35 2015.98 2017.35 2015.98 1910.27 1517.86 1910.27"/></g></g></svg>